<svg xmlns="http://www.w3.org/2000/svg" xmlns:xlink="http://www.w3.org/1999/xlink" width="500" zoomAndPan="magnify" viewBox="0 0 375 374.999991" height="500" preserveAspectRatio="xMidYMid meet" version="1.0"><defs><clipPath id="9d30b9871e"><path d="M 1.5 18 L 357 18 L 357 373.671875 L 1.5 373.671875 Z M 1.5 18 " clip-rule="nonzero"/></clipPath><clipPath id="5cbb38da4c"><path d="M 195 2.421875 L 372.75 2.421875 L 372.75 180 L 195 180 Z M 195 2.421875 " clip-rule="nonzero"/></clipPath></defs><g clip-path="url(#9d30b9871e)"><path fill="#0ef07b" d="M 356.355469 196.050781 C 356.355469 294.039062 276.917969 373.476562 178.929688 373.476562 C 80.9375 373.476562 1.5 294.039062 1.5 196.050781 C 1.5 98.058594 80.9375 18.621094 178.929688 18.621094 L 178.929688 196.050781 Z M 356.355469 196.050781 " fill-opacity="1" fill-rule="nonzero"/></g><g clip-path="url(#5cbb38da4c)"><path fill="#a6a6a6" d="M 372.550781 179.855469 C 372.550781 81.863281 293.113281 2.425781 195.121094 2.425781 L 195.121094 179.855469 Z M 372.550781 179.855469 " fill-opacity="1" fill-rule="nonzero"/></g><path fill="#ffffff" d="M 366.765625 169.296875 C 366.765625 169.296875 367.25 172.351562 359.453125 172.351562 C 352.707031 172.351562 366.9375 167.285156 365.390625 156.078125 C 363.976562 145.84375 348.761719 172.351562 340.160156 172.351562 C 332.613281 172.351562 364.230469 147.636719 362.4375 140.0625 C 360.859375 133.382812 331.566406 172.351562 324.363281 172.351562 C 318.214844 172.351562 361.621094 135.769531 358.6875 126.71875 C 356.027344 118.5 314.621094 172.351562 306.035156 172.351562 C 298.503906 172.351562 357.011719 120.984375 353.15625 112 C 349.628906 103.777344 293.539062 172.351562 287.347656 172.351562 C 282.210938 172.351562 351.183594 107.148438 347.8125 100.652344 C 344.816406 94.878906 279.574219 172.351562 272.015625 172.351562 C 265.515625 172.351562 345.589844 96.195312 341.796875 90.007812 C 338.421875 84.5 263.335938 172.351562 255.972656 172.351562 C 249.660156 172.351562 339.878906 86.5625 334.730469 79.414062 C 330.042969 72.902344 245.433594 172.351562 237.445312 172.351562 C 230.507812 172.351562 331.230469 74.46875 326.796875 69.199219 C 322.859375 64.515625 227.828125 172.351562 222.34375 172.351562 C 217.914062 172.351562 324.5625 66.414062 320.296875 61.890625 C 316.554688 57.921875 215.886719 172.351562 208.332031 172.351562 C 201.828125 172.351562 317.371094 58.671875 312.253906 53.90625 C 307.695312 49.667969 202.5 168.558594 202.5 162.351562 C 202.5 157.257812 309.453125 51.203125 304.65625 47.238281 C 300.449219 43.761719 202.5 154.410156 202.5 148.234375 C 202.5 143.175781 301.96875 44.921875 297.042969 41.296875 C 292.738281 38.125 202.5 140.878906 202.5 133.972656 C 202.5 128.183594 295.082031 39.613281 287.464844 34.761719 C 280.5 30.324219 202.5 122.335938 202.5 115.109375 C 202.5 108.992188 283.820312 32.234375 276.035156 28.082031 C 268.949219 24.304688 202.5 104.082031 202.5 96.359375 C 202.5 89.753906 270.804688 25.25 264.898438 22.628906 C 259.730469 20.335938 202.5 88.75 202.5 80.742188 C 202.5 73.84375 261.195312 20.828125 253.265625 17.988281 C 246.121094 15.425781 202.5 69.933594 202.5 63.300781 C 202.5 57.78125 248.878906 16.300781 241.6875 14.285156 C 235.332031 12.507812 202.5 55.019531 202.5 47.945312 C 202.5 41.984375 237.417969 12.960938 229.601562 11.375 C 222.667969 9.96875 202.5 40.433594 202.5 30.898438 C 202.5 22.472656 222.589844 9.925781 214.933594 9.046875 C 208.230469 8.28125 202.5 21.273438 202.5 15.269531 C 202.5 10.378906 205.796875 8.222656 205.796875 8.222656 C 205.796875 8.222656 200.398438 8.144531 200.398438 17.492188 C 200.398438 25.722656 208.03125 10.722656 212.832031 11.273438 C 216.6875 11.714844 200.398438 20.242188 200.398438 33.121094 C 200.398438 44.886719 222.332031 12.550781 227.496094 13.597656 C 231.78125 14.46875 200.398438 39.753906 200.398438 50.167969 C 200.398438 59.46875 234.894531 15.195312 239.585938 16.511719 C 243.445312 17.589844 200.398438 55.550781 200.398438 65.527344 C 200.398438 74.386719 245.589844 18.214844 251.160156 20.210938 C 255.945312 21.925781 200.398438 71.613281 200.398438 82.964844 C 200.398438 93.199219 259.113281 23.21875 262.796875 24.851562 C 265.738281 26.15625 200.398438 87.523438 200.398438 98.585938 C 200.398438 108.53125 268.246094 27.273438 273.933594 30.308594 C 278.917969 32.964844 200.398438 106.761719 200.398438 117.332031 C 200.398438 126.785156 279.710938 33.386719 285.359375 36.984375 C 290.351562 40.164062 200.398438 125.949219 200.398438 136.195312 C 200.398438 145.328125 291.875 41.265625 294.9375 43.519531 C 297.382812 45.316406 200.398438 140.941406 200.398438 150.457031 C 200.398438 158.859375 299.53125 46.960938 302.554688 49.460938 C 304.988281 51.472656 200.398438 155.027344 200.398438 164.574219 C 200.398438 173.011719 306.710938 52.933594 310.152344 56.132812 C 313.03125 58.808594 195.511719 174.574219 206.226562 174.574219 C 215.890625 174.574219 315.503906 61.257812 318.191406 64.113281 C 320.355469 66.410156 211.597656 174.574219 220.242188 174.574219 C 227.832031 174.574219 321.75 67.917969 324.695312 71.421875 C 327.144531 74.332031 224.191406 174.574219 235.339844 174.574219 C 245.4375 174.574219 328.847656 76.390625 332.628906 81.640625 C 335.957031 86.257812 243.347656 174.574219 253.867188 174.574219 C 263.339844 174.574219 337.144531 88.074219 339.695312 92.234375 C 341.832031 95.714844 259.199219 174.574219 269.914062 174.574219 C 279.578125 174.574219 343.460938 98.539062 345.710938 102.875 C 347.585938 106.496094 275.894531 174.574219 285.246094 174.574219 C 293.542969 174.574219 348.183594 107.535156 351.054688 114.222656 C 353.59375 120.144531 292.191406 174.574219 303.933594 174.574219 C 314.625 174.574219 354.460938 122.382812 356.585938 128.941406 C 358.441406 134.671875 311.898438 174.574219 322.261719 174.574219 C 331.570312 174.574219 359.179688 137.390625 360.335938 142.289062 C 361.285156 146.296875 326.300781 174.574219 338.058594 174.574219 C 348.765625 174.574219 362.144531 150.007812 363.289062 158.300781 C 364.300781 165.625 346.390625 174.574219 357.347656 174.574219 C 367.25 174.574219 366.765625 169.296875 366.765625 169.296875 Z M 366.765625 169.296875 " fill-opacity="1" fill-rule="nonzero"/></svg>